Coordinates
version=1
nRows=60
nColumns=12
inDegrees=yes

Units are S.I. units (second, meters, Newtons, ...)
Angles are in degrees

endheader
time	SC_y	SC_z	SC_x	AC_y	AC_z	AC_x	GH_y	GH_z	GH_yy	EL_x	PS_y
       0.0              -42.32          27.68          68.94          36.61          2.328          1.451         -88.09         -19.83         -29.81           22.0          102.8
   0.01532              -42.31          27.68          68.94          36.61          2.329           1.45         -88.09         -19.82         -29.79          22.01          102.8
   0.03065              -42.31          27.68          68.94          36.61           2.33          1.449         -88.09         -19.82         -29.77          22.01          102.8
   0.04597               -42.3          27.68          68.94          36.62          2.331          1.448          -88.1         -19.81         -29.75          22.01          102.8
    0.0613               -42.3          27.69          68.94          36.62          2.333          1.447          -88.1          -19.8         -29.73          22.01          102.8
   0.07662              -42.29          27.69          68.94          36.63          2.334          1.445         -88.11          -19.8         -29.71          22.02          102.8
   0.09195              -42.29          27.69          68.94          36.63          2.336          1.444         -88.11         -19.79         -29.68          22.02          102.8
    0.1073              -42.28          27.69          68.94          36.64          2.337          1.442         -88.11         -19.78         -29.66          22.02          102.8
    0.1226              -42.28          27.69          68.94          36.64          2.339          1.441         -88.12         -19.77         -29.63          22.03          102.8
    0.1379              -42.27          27.69          68.94          36.65          2.341          1.439         -88.12         -19.76          -29.6          22.03          102.8
    0.1532              -42.27           27.7          68.94          36.66          2.342          1.437         -88.13         -19.75         -29.57          22.03          102.8
    0.1686              -42.26           27.7          68.94          36.66          2.345          1.435         -88.14         -19.74         -29.54          22.04          102.8
    0.1839              -42.25           27.7          68.94          36.67          2.347          1.433         -88.14         -19.73          -29.5          22.04          102.8
    0.1992              -42.24           27.7          68.94          36.68          2.349          1.431         -88.15         -19.72         -29.46          22.05          102.7
    0.2145              -42.23          27.71          68.94          36.69          2.352          1.428         -88.16          -19.7         -29.42          22.05          102.7
    0.2299              -42.22          27.71          68.94           36.7          2.355          1.426         -88.17         -19.69         -29.37          22.06          102.7
    0.2452              -42.21          27.71          68.94          36.71          2.358          1.423         -88.18         -19.67         -29.32          22.07          102.7
    0.2605               -42.2          27.72          68.94          36.72          2.361           1.42         -88.19         -19.65         -29.26          22.07          102.7
    0.2758              -42.19          27.72          68.94          36.73          2.365          1.416          -88.2         -19.63          -29.2          22.08          102.7
    0.2912              -42.17          27.72          68.94          36.74          2.369          1.412         -88.21         -19.61         -29.14          22.09          102.7
    0.3065              -42.16          27.73          68.94          36.76          2.373          1.408         -88.22         -19.59         -29.07           22.1          102.7
    0.3218              -42.14          27.73          68.94          36.77          2.378          1.403         -88.24         -19.56         -28.99          22.11          102.7
    0.3371              -42.12          27.74          68.94          36.79          2.383          1.398         -88.25         -19.54          -28.9          22.12          102.6
    0.3525               -42.1          27.74          68.93          36.81          2.389          1.393         -88.27          -19.5          -28.8          22.13          102.6
    0.3678              -42.08          27.75          68.93          36.83          2.396          1.386         -88.29         -19.47         -28.69          22.15          102.6
    0.3831              -42.06          27.76          68.93          36.86          2.403          1.379         -88.31         -19.43         -28.57          22.16          102.6
    0.3984              -42.03          27.77          68.93          36.88          2.412          1.371         -88.34         -19.39         -28.44          22.18          102.6
    0.4138              -41.99          27.78          68.93          36.91          2.421          1.363         -88.37         -19.34         -28.29           22.2          102.5
    0.4291              -41.96          27.79          68.93          36.95          2.431          1.353          -88.4         -19.28         -28.12          22.22          102.5
    0.4444              -41.92           27.8          68.93          36.99          2.443          1.341         -88.44         -19.22         -27.92          22.25          102.5
    0.4597              -41.87          27.81          68.93          37.03          2.457          1.328         -88.48         -19.15          -27.7          22.27          102.4
    0.4751              -41.82          27.83          68.93          37.09          2.473          1.313         -88.52         -19.07         -27.44          22.31          102.4
    0.4904              -41.75          27.85          68.92          37.14          2.491          1.296         -88.58         -18.97         -27.15          22.34          102.3
    0.5057              -41.68          27.87          68.92          37.21          2.512          1.276         -88.64         -18.86         -26.81          22.39          102.2
     0.521               -41.6           27.9          68.92          37.29          2.536          1.253         -88.72         -18.73          -26.4          22.44          102.2
    0.5364               -41.5          27.92          68.91          37.39          2.565          1.226          -88.8         -18.58         -25.93           22.5          102.1
    0.5517              -41.38          27.96          68.91           37.5          2.599          1.193         -88.91          -18.4         -25.37          22.57          102.0
     0.567              -41.24           28.0          68.91          37.64           2.64          1.154         -89.03         -18.18          -24.7          22.66          101.8
    0.5823              -41.07          28.05           68.9           37.8           2.69          1.106         -89.18         -17.92         -23.88          22.76          101.7
    0.5977              -40.86          28.12          68.89           38.0          2.751          1.048         -89.37          -17.6         -22.89          22.89          101.5
     0.613               -40.6          28.19          68.89          38.25          2.826         0.9768         -89.59         -17.21         -21.66          23.04          101.3
    0.6283              -40.28          28.29          68.88          38.56           2.92         0.8877         -89.88         -16.72         -20.13          23.24          101.0
    0.6436              -39.87          28.41          68.86          38.95          3.038         0.7754         -90.23          -16.1          -18.2          23.48          100.6
     0.659              -39.35          28.57          68.85          39.45          3.188         0.6327         -90.68         -15.31         -15.75           23.8          100.1
    0.6743              -38.69          28.76          68.82          40.08           3.38           0.45         -91.26          -14.3         -12.61           24.2          99.52
    0.6896              -37.84          29.02           68.8          40.89          3.626         0.2155         -92.01          -13.0         -8.588          24.71          98.75
    0.7049              -36.76          29.34          68.76          41.93          3.941       -0.08393         -92.96         -11.35         -3.445          25.37          97.76
    0.7203              -35.39          29.75          68.72          43.24          4.336        -0.4605         -94.15         -9.269          3.021          26.19          96.52
    0.7356              -33.73          30.24          68.66          44.83          4.818        -0.9194         -95.61         -6.734           10.9           27.2          95.01
    0.7509              -31.81          30.82           68.6          46.68          5.377         -1.451          -97.3         -3.796          20.04          28.36          93.26
    0.7662              -29.72          31.44          68.53          48.67          5.982         -2.027         -99.13        -0.6153          29.93          29.62          91.36
    0.7816              -27.64          32.06          68.47          50.67          6.587         -2.603         -101.0          2.566          39.82          30.88          89.47
    0.7969              -25.71          32.64           68.4          52.52          7.146         -3.135         -102.6          5.504          48.95          32.05          87.72
    0.8122              -24.05          33.13          68.35          54.11          7.628         -3.594         -104.1          8.038          56.83          33.05          86.21
    0.8275              -22.69          33.54          68.31          55.42          8.023          -3.97         -105.3          10.12           63.3          33.88          84.97
    0.8429               -21.6          33.86          68.27          56.46          8.338          -4.27         -106.2          11.77          68.44          34.53          83.98
    0.8582              -20.75          34.12          68.24          57.27          8.584         -4.504         -107.0          13.07          72.47          35.05          83.21
    0.8735              -20.09          34.31          68.22           57.9          8.776         -4.687         -107.6          14.08           75.6          35.45          82.61
    0.8888              -19.57          34.47           68.2           58.4          8.926          -4.83         -108.0          14.86          78.06          35.76          82.14
    0.9042              -19.17          34.59          68.19          58.79          9.044         -4.942         -108.4          15.48          79.98          36.01          81.77
